<svg xmlns="http://www.w3.org/2000/svg" width="123" height="124" viewBox="0 0 123 124">
  <g id="airhitect" transform="translate(0 124)">
    <path id="Trazado_6" data-name="Trazado 6" d="M0-62V0H123V-124H0ZM97.5-82.4C99.4-81.6,116-49,116-46c0,2.6-4.3,5.4-7,4.5-1.4-.4-4-4.4-7.8-12.1L95.4-65.1l-3.9,8.2C87.1-47.9,84.2-45,79.8-45c-3.8,0-6.4-2.9-10.7-11.9C67.2-60.8,65.3-64,65-64c-.4,0-1.5,1.8-2.5,3.9-5.2,11.6-17.8,13.5-23.7,3.5-2.6-4.5-5-4.3-9.6.5-4.2,4.4-7.5,5.6-12.7,4.7C12.3-52.2,7-57.3,7-60.5A5.373,5.373,0,0,1,16.5-64c2.4,2.7,3.9,2.5,5.9-.5,5.7-8.7,19.3-8.4,24.4.5.9,1.6,2.3,3,2.9,3,.7,0,2.6-2.7,4.3-5.9,3.5-6.9,6.1-9.1,11-9.1,5.1,0,7.6,2.2,11.7,10.3l3.6,7.2,5.4-11C92.1-82.3,93.5-83.9,97.5-82.4Z" fill="#fff"/>
  </g>
</svg>
