<svg xmlns="http://www.w3.org/2000/svg" width="83.1" height="78.574" viewBox="0 0 83.1 78.574">
  <g id="gayo" transform="translate(0.54 0.545)">
    <path id="Trazado_66" data-name="Trazado 66" d="M32.939,8.121,49.067,4.2l11.115,9.188L57.239,25.12,44.89,30.859,29.271,26.718l-2.325-9.553,5.993-9.048Z" transform="translate(-14.197 -4.2)" fill="#28a745" stroke="#fff" stroke-miterlimit="10" stroke-width="1" fill-rule="evenodd"/>
    <path id="Trazado_67" data-name="Trazado 67" d="M63.359,14.071,61.4,25.185,73.64,37.426l13.079-1.961L90.749,20.79,76.436,9.058,63.357,14.071Z" transform="translate(-13.888 -4.156)" fill="#ffc107" stroke="#fff" stroke-miterlimit="10" stroke-width="1" fill-rule="evenodd"/>
    <path id="Trazado_68" data-name="Trazado 68" d="M76.116,41.3l12.349-2.216L95.8,51.431,85.672,68.176l-12.713-1.2L68.311,56.334Z" transform="translate(-13.826 -3.887)" fill="#dc3545" stroke="#fff" stroke-miterlimit="10" stroke-width="1" fill-rule="evenodd"/>
    <path id="Trazado_70" data-name="Trazado 70" d="M33.894,63.514,48.458,52.762,64.84,57.048l5.231,12.315L61.022,81.239,40.614,76.953Z" transform="translate(-14.134 -3.765)" fill="#007bff" stroke="#fff" stroke-miterlimit="10" stroke-width="1" fill-rule="evenodd"/>
    <path id="Trazado_72" data-name="Trazado 72" d="M14.31,43.847,27.641,30.3l14.42,4.031L45.729,49.95,30.692,61.573l-13.079-.364Z" transform="translate(-14.31 -3.966)" fill="#343a40" stroke="#fff" stroke-miterlimit="10" stroke-width="1" fill-rule="evenodd"/>
  </g>
</svg>
