<svg xmlns="http://www.w3.org/2000/svg" width="120.05" height="120.05" viewBox="0 0 120.05 120.05">
  <path id="Icon_awesome-js" data-name="Icon awesome-js" d="M0,2.25V122.3H120.05V2.25ZM65.331,95.878c0,11.683-6.86,17.016-16.855,17.016-9.031,0-14.256-4.663-16.936-10.317l9.191-5.547c1.769,3.135,3.376,5.788,7.262,5.788,3.7,0,6.056-1.447,6.056-7.1V57.371H65.331Zm26.69,17.016c-10.478,0-17.257-4.984-20.553-11.523l9.191-5.306c2.412,3.939,5.574,6.86,11.121,6.86,4.663,0,7.664-2.331,7.664-5.574,0-3.859-3.055-5.225-8.227-7.5L88.4,88.643C80.257,85.186,74.87,80.818,74.87,71.627c0-8.468,6.458-14.9,16.507-14.9,7.182,0,12.327,2.492,16.025,9.031l-8.789,5.627c-1.929-3.457-4.02-4.823-7.262-4.823-3.3,0-5.386,2.09-5.386,4.823,0,3.376,2.09,4.743,6.94,6.86l2.814,1.206c9.593,4.1,14.979,8.307,14.979,17.74,0,10.129-7.985,15.7-18.677,15.7Z" transform="translate(0 -2.25)" fill="#fff"/>
</svg>
