<svg xmlns="http://www.w3.org/2000/svg" width="60.203" height="60.203" viewBox="0 0 60.203 60.203">
  <path id="Icon_awesome-bootstrap" data-name="Icon awesome-bootstrap" d="M39.279,39.867c0,5.7-5.338,5.567-5.9,5.567H22.507V34.457h10.87c5.719,0,5.9,4.287,5.9,5.41ZM32.54,30.04c.09,0,5.166.134,5.166-4.879,0-2.086-.472-4.82-5.166-4.82H22.507v9.7ZM60.2,12.284V52.418A10.064,10.064,0,0,1,50.168,62.453H10.034A10.064,10.064,0,0,1,0,52.418V12.284A10.064,10.064,0,0,1,10.034,2.25H50.168A10.064,10.064,0,0,1,60.2,12.284ZM45.427,40.664c0-2.9-.894-7.833-6.591-9.051v-.1a7.7,7.7,0,0,0,5.018-7.477c0-.941.269-8.705-10.428-8.705H16.36V50.451c17.232,0,18.8.226,21.985-.767,1.91-.594,7.083-2.416,7.083-9.02Z" transform="translate(0 -2.25)"/>
</svg>
