<svg xmlns="http://www.w3.org/2000/svg" width="74.268" height="74.267" viewBox="0 0 74.268 74.267">
  <path id="Icon_awesome-git-alt" data-name="Icon awesome-git-alt" d="M72.867,36.076,40.45,3.65a4.786,4.786,0,0,0-6.765,0l-6.74,6.736,8.541,8.541a5.683,5.683,0,0,1,7.193,7.241L50.91,34.4a5.693,5.693,0,0,1,5.88,9.4c-4.391,4.391-11.639-.476-9.284-6.19l-7.684-7.674v20.2a5.687,5.687,0,1,1-4.678-.166V29.578a5.686,5.686,0,0,1-3.09-7.46l-8.42-8.43L1.4,35.926a4.784,4.784,0,0,0,0,6.765L33.828,75.117a4.784,4.784,0,0,0,6.764,0L72.867,42.842a4.784,4.784,0,0,0,0-6.765Z" transform="translate(0 -2.25)"/>
</svg>
