<svg xmlns="http://www.w3.org/2000/svg" width="65.659" height="49.249" viewBox="0 0 65.659 49.249">
  <path id="Icon_awesome-sass" data-name="Icon awesome-sass" d="M30.967,38.358C30.936,38.419,30.9,38.469,30.967,38.358Zm25.559-8.926a13.456,13.456,0,0,0-5.95,1.385,12.636,12.636,0,0,1-1.334-3.088,8.243,8.243,0,0,1-.113-2.6,21.859,21.859,0,0,1,.78-2.791c-.01-.113-.144-.677-1.467-.687s-2.462.256-2.595.605a12.6,12.6,0,0,0-.544,1.96c-.236,1.2-2.646,5.489-4.01,7.725a7.966,7.966,0,0,1-.913-2.257,8.243,8.243,0,0,1-.113-2.6,21.861,21.861,0,0,1,.78-2.791c-.01-.113-.144-.677-1.466-.687s-2.462.256-2.6.605-.277,1.17-.544,1.96-3.477,7.93-4.317,9.787c-.431.944-.8,1.7-1.067,2.216-.041.082-.072.133-.092.174.031-.051.051-.1.051-.082-.226.441-.359.687-.359.687v.01c-.174.328-.369.626-.462.626a4.256,4.256,0,0,1,.031-2.042c.482-2.483,1.621-6.34,1.611-6.474-.01-.072.215-.739-.749-1.1a1.208,1.208,0,0,0-1.354.226c-.082,0-.144.205-.144.205s1.036-4.35-1.989-4.35c-1.888,0-4.514,2.072-5.8,3.95-.81.441-2.565,1.4-4.411,2.411-.708.39-1.436.79-2.124,1.17-.051-.051-.092-.1-.144-.154C11.445,29.525,4.666,26.755,4.953,21.492c.1-1.918.769-6.956,13.036-13.07,10.054-5.007,18.092-3.632,19.476-.575,1.99,4.36-4.3,12.475-14.739,13.645-3.98.441-6.071-1.1-6.595-1.672-.544-.605-.626-.636-.831-.523-.339.185-.123.718,0,1.036A6.182,6.182,0,0,0,19.076,23.3c1.918.626,6.584.975,12.226-1.211,6.338-2.442,11.272-9.244,9.825-14.938C39.654,1.363,30.06-.535,20.987,2.686,15.582,4.6,9.736,7.621,5.531,11.55.535,16.229-.264,20.3.065,22c1.169,6.043,9.5,9.982,12.83,12.9-.164.092-.318.174-.462.256-1.671.831-8.021,4.155-9.61,7.664-1.8,3.981.3,6.833,1.671,7.223A10.243,10.243,0,0,0,15.53,45.57a11.108,11.108,0,0,0,.985-10.208c-.01-.031-.031-.051-.041-.082.431-.256.872-.513,1.313-.769.85-.5,1.681-.964,2.41-1.364a15.935,15.935,0,0,0-.862,4.37c-.185,2.257.749,5.181,1.96,6.33a2.153,2.153,0,0,0,1.579.513c1.416,0,2.052-1.17,2.759-2.565.872-1.7,1.641-3.683,1.641-3.683s-.964,5.355,1.672,5.355c.963,0,1.928-1.241,2.36-1.877v.01s.021-.041.072-.123c.1-.154.154-.246.154-.246V41.2c.39-.667,1.241-2.2,2.523-4.719,1.662-3.262,3.251-7.335,3.251-7.335a20.646,20.646,0,0,0,.636,2.647,24.781,24.781,0,0,0,1.375,3.078c-.39.533-.626.841-.626.841a.032.032,0,0,0,.01.021c-.308.41-.657.852-1.016,1.282a36.213,36.213,0,0,0-3.078,3.857,1.048,1.048,0,0,0,.287,1.406,2.494,2.494,0,0,0,1.61.256,7.115,7.115,0,0,0,2.411-.554,8.433,8.433,0,0,0,2.071-1.087,4.632,4.632,0,0,0,1.99-4.083,8.5,8.5,0,0,0-.749-2.893c.113-.164.236-.339.349-.513a54.54,54.54,0,0,0,3.6-6.219,20.645,20.645,0,0,0,.636,2.647,18.1,18.1,0,0,0,1.169,2.637,11.277,11.277,0,0,0-3.5,4.524c-.759,2.185-.164,3.17.954,3.4a3.442,3.442,0,0,0,1.754-.359,8.152,8.152,0,0,0,2.215-1.139c1.282-.944,2.523-2.267,2.441-4.063a7.633,7.633,0,0,0-.554-2.4,12.523,12.523,0,0,1,6.37-.739c5.712.667,6.831,4.237,6.615,5.725a3.793,3.793,0,0,1-1.816,2.565c-.4.246-.523.339-.492.523.051.267.236.256.575.195a4.457,4.457,0,0,0,3.108-3.97c.164-3.488-3.19-7.325-9.131-7.294ZM12.495,44.278c-1.887,2.062-4.534,2.842-5.671,2.185-1.221-.71-.739-3.745,1.589-5.942A30.4,30.4,0,0,1,12.864,37.2c.277-.164.677-.41,1.17-.708.082-.051.123-.072.123-.072.092-.062.195-.113.3-.174a8.189,8.189,0,0,1-1.96,8.033ZM26.279,34.9c-.657,1.611-2.041,5.714-2.882,5.5-.718-.185-1.159-3.314-.144-6.392A14.15,14.15,0,0,1,25.5,29.894c1.035-1.159,2.174-1.529,2.441-1.067C28.3,29.432,26.689,33.9,26.279,34.9Zm11.388,5.437c-.277.144-.533.236-.657.164-.092-.051.113-.246.113-.246s1.426-1.529,1.99-2.226c.328-.41.708-.893,1.117-1.426,0,.051.01.1.01.164-.013,1.836-1.777,3.078-2.577,3.57Zm8.78-2c-.205-.144-.174-.626.513-2.124A7.974,7.974,0,0,1,48.909,33.7a3.712,3.712,0,0,1,.195,1.108,3.617,3.617,0,0,1-2.656,3.529Z" transform="translate(0 -1.125)"/>
</svg>
