<svg xmlns="http://www.w3.org/2000/svg" width="56.431" height="55.02" viewBox="0 0 56.431 55.02">
  <path id="Icon_simple-adobexd" data-name="Icon simple-adobexd" d="M46.438.45H9.993A9.985,9.985,0,0,0,0,10.443V45.477A9.985,9.985,0,0,0,9.993,55.47H46.438a9.985,9.985,0,0,0,9.993-9.993V10.443A9.985,9.985,0,0,0,46.438.45Zm7.618,44.11a8.519,8.519,0,0,1-8.512,8.559H10.886a8.55,8.55,0,0,1-8.535-8.535V11.336A8.55,8.55,0,0,1,10.886,2.8H45.521a8.535,8.535,0,0,1,8.535,8.535ZM22.314,26.2,28.9,38.847c.118.188.047.376-.141.376H24.665a.461.461,0,0,1-.494-.306c-1.5-3.1-3.033-6.207-4.609-9.546h-.047c-1.411,3.151-2.963,6.466-4.467,9.57a.452.452,0,0,1-.423.259h-3.88c-.235,0-.259-.188-.141-.329L17.047,26.6,10.816,14.182a.19.19,0,0,1,.141-.329H15a.37.37,0,0,1,.423.259c1.481,3.1,2.986,6.3,4.4,9.429h.047c1.364-3.1,2.869-6.325,4.326-9.405.118-.188.188-.306.423-.306H28.4c.188,0,.259.141.141.329Zm7.736,3.833c0-5.479,3.645-9.758,9.429-9.758a10.427,10.427,0,0,1,1.223.047V14.088a.236.236,0,0,1,.235-.235h3.715c.188,0,.235.071.235.188V35.625A16.748,16.748,0,0,0,45,37.93c0,.141-.047.188-.188.259A14.006,14.006,0,0,1,38.8,39.552C33.694,39.576,30.05,36.425,30.05,30.029ZM40.7,24.01a3.556,3.556,0,0,0-1.364-.235c-2.963,0-5.032,2.281-5.032,6.066,0,4.326,2.116,6.066,4.773,6.066a4.436,4.436,0,0,0,1.622-.259V24.01Z" transform="translate(0 -0.45)" fill="#fff"/>
</svg>
