<svg xmlns="http://www.w3.org/2000/svg" width="96.01" height="84.013" viewBox="0 0 96.01 84.013">
  <path id="Icon_awesome-react" data-name="Icon awesome-react" d="M78.421,29.476q-1.519-.506-3.038-.956c.169-.694.319-1.388.469-2.081,2.306-11.176.788-20.158-4.332-23.121-4.932-2.832-12.976.113-21.115,7.2-.806.694-1.594,1.425-2.344,2.156-.506-.488-1.031-.975-1.556-1.444C37.973,3.655,29.422.467,24.3,3.449,19.39,6.3,17.927,14.756,19.99,25.332c.206,1.05.431,2.081.694,3.132-1.2.338-2.382.713-3.488,1.106C7.182,33.039,0,38.515,0,44.178,0,50.029,7.651,55.9,18.058,59.461c.844.281,1.688.563,2.55.806-.281,1.125-.525,2.231-.75,3.375C17.889,74.05,19.427,82.3,24.34,85.132,29.4,88.058,37.917,85.057,46.2,77.8c.656-.581,1.313-1.181,1.969-1.819.825.806,1.688,1.575,2.55,2.325C58.75,85.207,66.682,88,71.576,85.17c5.063-2.925,6.713-11.8,4.575-22.6q-.253-1.238-.563-2.532c.6-.169,1.181-.356,1.763-.544,10.82-3.582,18.658-9.376,18.658-15.32,0-5.682-7.388-11.195-17.589-14.7ZM53.049,13.556C60.025,7.48,66.532,5.1,69.495,6.805c3.169,1.819,4.388,9.17,2.4,18.827-.131.638-.263,1.256-.431,1.875a96,96,0,0,0-12.62-1.988,94.744,94.744,0,0,0-7.988-9.957c.731-.694,1.444-1.35,2.194-2.006ZM31.353,53.91c.956,1.631,1.931,3.263,2.963,4.857a84.914,84.914,0,0,1-8.7-1.406,87.6,87.6,0,0,1,3.057-8.345c.863,1.65,1.744,3.282,2.682,4.894ZM25.671,31.352c2.7-.6,5.569-1.088,8.551-1.463-.994,1.556-1.969,3.15-2.888,4.763-.919,1.594-1.819,3.225-2.663,4.876-1.181-2.794-2.175-5.532-3-8.176Zm5.138,12.92c1.238-2.588,2.588-5.119,4.013-7.613s2.963-4.913,4.575-7.295c2.813-.206,5.682-.319,8.607-.319s5.813.113,8.607.319Q59,32.908,61.169,36.621T65.238,44.2q-1.885,3.882-4.05,7.651c-1.425,2.494-2.944,4.913-4.538,7.313-2.794.206-5.7.3-8.645.3s-5.794-.094-8.551-.263q-2.447-3.572-4.613-7.313c-1.444-2.494-2.775-5.026-4.032-7.613Zm33.866,9.6c.956-1.65,1.856-3.319,2.738-5.007a87.048,87.048,0,0,1,3.169,8.307,82.367,82.367,0,0,1-8.813,1.5C62.782,57.1,63.738,55.485,64.676,53.873Zm2.7-14.345c-.881-1.65-1.781-3.3-2.719-4.913q-1.378-2.391-2.869-4.726a86.292,86.292,0,0,1,8.607,1.5A82.99,82.99,0,0,1,67.376,39.527Zm-19.333-21.1a82.343,82.343,0,0,1,5.551,6.713c-3.713-.169-7.445-.169-11.157,0C44.273,22.726,46.167,20.475,48.043,18.432ZM26.29,6.937C29.441,5.1,36.435,7.724,43.8,14.25c.469.413.938.863,1.425,1.313a95.269,95.269,0,0,0-8.045,9.957,98.848,98.848,0,0,0-12.6,1.95c-.244-.956-.45-1.931-.656-2.907-1.763-9.076-.6-15.92,2.363-17.627ZM21.7,56.367c-.788-.225-1.556-.469-2.325-.731A38.245,38.245,0,0,1,7.557,49.785a8.414,8.414,0,0,1-3.525-5.607c0-3.432,5.926-7.82,14.477-10.8,1.069-.375,2.156-.713,3.244-1.031a99.712,99.712,0,0,0,4.594,11.926,102.5,102.5,0,0,0-4.65,12.1ZM43.561,74.744a34.322,34.322,0,0,1-10.576,6.619,8.3,8.3,0,0,1-6.619.244c-2.982-1.725-4.219-8.345-2.532-17.252.206-1.05.431-2.1.694-3.132A93.811,93.811,0,0,0,37.26,63.061a98.957,98.957,0,0,0,8.1,10.014C44.761,73.656,44.161,74.219,43.561,74.744Zm4.594-4.557c-1.913-2.063-3.825-4.35-5.682-6.807,1.8.075,3.657.113,5.532.113,1.931,0,3.825-.038,5.7-.131a80.868,80.868,0,0,1-5.551,6.826Zm24.509,5.626a8.334,8.334,0,0,1-3.094,5.869c-2.982,1.725-9.338-.525-16.2-6.413-.788-.675-1.575-1.406-2.382-2.156A92.765,92.765,0,0,0,58.9,63.061a92.44,92.44,0,0,0,12.789-1.969c.188.769.356,1.538.506,2.288a34.184,34.184,0,0,1,.469,12.433Zm3.413-20.158c-.525.169-1.05.338-1.594.488A95.259,95.259,0,0,0,69.7,44.178,94.784,94.784,0,0,0,74.3,32.383c.975.281,1.913.581,2.813.881,8.738,3,14.87,7.463,14.87,10.876,0,3.675-6.544,8.42-15.9,11.514ZM48.005,52.841a8.588,8.588,0,1,0-8.588-8.588A8.587,8.587,0,0,0,48.005,52.841Z" transform="translate(0 -2.251)"/>
</svg>
